<?xml version="1.0" standalone="no"?>
<!DOCTYPE svg PUBLIC "-//W3C//DTD SVG 20010904//EN"
 "http://www.w3.org/TR/2001/REC-SVG-20010904/DTD/svg10.dtd">
<svg version="1.0" xmlns="http://www.w3.org/2000/svg"
 width="552.000000pt" height="552.000000pt" viewBox="0 0 552.000000 552.000000"
 preserveAspectRatio="xMidYMid meet">

<g transform="translate(0.000000,552.000000) scale(0.100000,-0.100000)"
fill="#000000" stroke="none">
<path d="M2570 5091 c-330 -36 -659 -158 -935 -347 -249 -170 -482 -436 -623
-711 -166 -323 -247 -726 -213 -1063 21 -205 80 -449 141 -583 29 -65 97 -132
167 -165 53 -25 68 -27 183 -27 109 0 135 3 205 27 287 96 472 257 622 538 53
98 111 241 223 540 165 441 185 485 247 552 l26 27 -54 15 c-194 56 -408 56
-631 1 -331 -83 -600 -304 -625 -514 -5 -46 -8 -51 -27 -45 -38 11 -59 40 -64
92 -3 39 1 60 24 106 66 135 294 293 528 366 182 58 293 74 496 75 215 0 292
-15 440 -88 105 -52 229 -168 281 -264 19 -35 36 -63 39 -63 3 1 27 53 54 117
78 186 167 328 252 403 81 71 197 100 263 66 33 -18 56 -44 47 -53 -4 -4 -10
-2 -14 4 -14 22 -79 43 -114 36 -75 -15 -162 -142 -233 -337 -38 -105 -159
-434 -251 -683 -35 -95 -64 -177 -64 -183 0 -15 115 8 185 37 120 51 269 194
455 438 80 105 298 362 362 426 164 164 347 251 483 229 58 -9 64 -7 42 18
-10 10 -17 22 -17 26 0 14 -120 186 -193 278 -75 94 -189 209 -262 263 -22 16
-60 46 -85 67 -82 67 -363 228 -400 228 -5 0 -24 8 -42 18 -18 10 -60 26 -93
36 -33 10 -71 23 -84 28 -28 10 -67 19 -221 48 -118 23 -397 34 -520 21z"/>
<path d="M4333 4005 c-70 -35 -158 -132 -298 -325 -223 -311 -259 -355 -364
-460 -141 -141 -267 -226 -421 -285 l-74 -28 41 -12 c60 -18 105 -49 160 -109
66 -73 101 -148 182 -390 70 -209 94 -256 133 -256 79 0 250 207 369 444 47
94 69 125 69 97 0 -28 -89 -214 -145 -301 -82 -128 -209 -271 -285 -319 -73
-47 -121 -57 -173 -37 -79 30 -109 82 -191 334 -31 95 -56 177 -56 182 0 29
-89 213 -124 256 -47 59 -79 74 -160 74 l-57 0 -20 -47 c-51 -118 -124 -261
-159 -308 -125 -169 -295 -238 -390 -158 -17 14 -28 29 -25 34 3 4 14 0 25
-11 47 -47 119 -38 182 25 66 65 112 164 233 500 59 165 113 314 120 330 6 17
22 58 35 92 22 61 22 63 5 138 -21 95 -82 217 -136 273 -45 46 -108 97 -113
91 -1 -2 -51 -139 -110 -304 -164 -462 -213 -576 -322 -742 -222 -338 -571
-577 -918 -629 -98 -15 -193 -10 -274 12 l-24 7 22 -44 c78 -154 302 -407 486
-550 67 -52 194 -137 239 -159 106 -55 141 -72 235 -113 193 -85 465 -137 727
-137 364 0 674 82 987 262 73 42 147 89 156 99 3 3 32 25 65 49 50 36 101 82
209 186 24 23 119 135 153 181 20 26 40 50 43 53 11 9 90 141 90 150 0 4 4 10
9 12 7 3 65 118 114 229 84 187 147 510 147 746 0 247 -69 567 -171 790 -46
102 -124 129 -226 78z"/>
<path d="M1417 843 c-4 -3 -2 -12 5 -20 8 -10 10 -72 9 -203 -2 -162 0 -190
13 -190 22 0 23 13 18 173 -3 82 -1 147 4 147 5 0 20 -16 33 -35 13 -19 31
-43 40 -54 9 -10 52 -67 96 -125 44 -59 87 -106 96 -106 14 0 17 25 23 201 4
111 5 204 2 206 -3 3 -13 3 -22 -1 -14 -5 -15 -24 -12 -150 1 -79 0 -147 -4
-151 -3 -3 -14 6 -25 20 -10 15 -25 34 -33 44 -8 9 -26 32 -39 51 -14 19 -31
42 -38 50 -8 8 -37 45 -64 83 -36 48 -56 67 -73 67 -12 0 -26 -3 -29 -7z"/>
<path d="M2933 839 c-82 -19 -121 -111 -73 -171 10 -14 58 -44 105 -67 82 -41
85 -44 85 -76 0 -49 -31 -75 -92 -75 -39 0 -54 6 -83 31 l-35 31 0 -28 c0 -43
10 -51 70 -58 104 -12 178 22 194 89 14 61 -8 94 -90 133 -97 46 -97 46 -114
75 -13 24 -13 30 0 54 32 57 126 57 160 0 l20 -32 0 42 c0 23 -4 44 -9 47 -19
12 -97 15 -138 5z"/>
<path d="M3357 840 c-40 -7 -61 -20 -34 -20 16 0 31 -48 27 -81 -1 -8 -2 -81
-1 -162 l1 -148 28 3 27 3 3 193 2 192 40 0 c27 0 48 -7 67 -24 24 -21 28 -32
28 -75 0 -58 -13 -76 -71 -96 l-39 -14 40 -1 c46 0 96 27 122 66 23 36 20 101
-6 127 -41 41 -135 56 -234 37z"/>
<path d="M3900 825 c0 -24 -24 -86 -99 -260 -17 -38 -32 -78 -45 -117 -3 -11
0 -18 9 -18 8 0 23 25 34 58 12 31 25 64 30 72 10 19 84 32 133 24 34 -5 38
-9 65 -77 24 -63 32 -72 56 -75 31 -4 33 4 11 56 -8 20 -40 105 -71 187 -31
83 -60 155 -65 160 -5 6 -20 10 -33 10 -19 1 -25 -4 -25 -20z m61 -153 c10
-30 19 -58 19 -62 0 -7 -119 -4 -126 3 -4 4 6 34 48 147 l10 25 15 -29 c8 -16
23 -53 34 -84z"/>
<path d="M1992 833 c-10 -4 -8 -8 5 -18 16 -12 18 -34 21 -199 l3 -186 25 0
c23 0 24 3 25 58 0 31 4 79 7 106 l7 50 41 -50 c23 -27 62 -74 86 -104 38 -47
49 -55 83 -58 36 -3 38 -2 24 16 -31 44 -134 168 -151 183 -10 9 -18 23 -18
31 0 8 33 47 74 85 87 84 94 93 67 93 -10 0 -39 -21 -63 -47 -23 -25 -65 -68
-93 -95 l-50 -49 -7 58 c-4 32 -5 75 -2 96 l6 37 -39 -1 c-21 0 -44 -3 -51 -6z"/>
</g>
</svg>
